<svg width="200" height="200" viewBox="0 0 200 200" fill="none" xmlns="http://www.w3.org/2000/svg">
  <style>
    @keyframes blink {
      0%, 90%, 100% { transform: scaleY(1); }
      95% { transform: scaleY(0.1); }
    }
    .eye-blink {
      animation: blink 4s infinite;
      transform-origin: center;
    }
    
    @keyframes tail-wag {
      0%, 100% { transform: rotate(0deg); }
      50% { transform: rotate(10deg); }
    }
    .tail-wag {
      animation: tail-wag 2s infinite;
      transform-origin: 100px 140px;
    }

    @keyframes whisker-twitch {
      0%, 90%, 100% { transform: translateX(0); }
      95% { transform: translateX(2px); }
    }
    .whiskers-right {
      animation: whisker-twitch 5s infinite;
    }
    .whiskers-left {
      animation: whisker-twitch 5s infinite reverse;
    }
  </style>
  
  <!-- Cat Face -->
  <circle cx="100" cy="100" r="70" fill="#8B5CF6" />
  
  <!-- Cat Ears -->
  <path d="M50 50L70 80L30 80L50 50Z" fill="#6D28D9" />
  <path d="M150 50L170 80L130 80L150 50Z" fill="#6D28D9" />
  
  <!-- Cat Eyes -->
  <ellipse cx="70" cy="90" rx="10" ry="15" fill="white" />
  <ellipse cx="130" cy="90" rx="10" ry="15" fill="white" />
  
  <!-- Cat Pupils (with blinking animation) -->
  <g class="eye-blink">
    <ellipse cx="70" cy="90" rx="5" ry="10" fill="black" />
    <ellipse cx="130" cy="90" rx="5" ry="10" fill="black" />
  </g>
  
  <!-- Cat Nose -->
  <path d="M100 110L95 120H105L100 110Z" fill="#F472B6" />
  
  <!-- Cat Mouth -->
  <path d="M90 125Q100 135 110 125" stroke="black" stroke-width="2" fill="none" />
  
  <!-- Cat Whiskers with animation -->
  <g class="whiskers-left">
    <line x1="40" y1="115" x2="80" y2="115" stroke="black" stroke-width="1" />
    <line x1="40" y1="125" x2="80" y2="125" stroke="black" stroke-width="1" />
    <line x1="40" y1="135" x2="80" y2="135" stroke="black" stroke-width="1" />
  </g>
  
  <g class="whiskers-right">
    <line x1="120" y1="115" x2="160" y2="115" stroke="black" stroke-width="1" />
    <line x1="120" y1="125" x2="160" y2="125" stroke="black" stroke-width="1" />
    <line x1="120" y1="135" x2="160" y2="135" stroke="black" stroke-width="1" />
  </g>
  
  <!-- Cat Tail with wagging animation -->
  <path d="M70 140C60 160 80 170 100 165" stroke="#6D28D9" stroke-width="8" stroke-linecap="round" class="tail-wag" />
  
  <!-- Code Symbol -->
  <path d="M85 150L75 160L85 170" stroke="white" stroke-width="4" stroke-linecap="round" stroke-linejoin="round" />
  <path d="M115 150L125 160L115 170" stroke="white" stroke-width="4" stroke-linecap="round" stroke-linejoin="round" />
</svg>
