<svg width="200" height="200" viewBox="0 0 200 200" fill="none" xmlns="http://www.w3.org/2000/svg">
  <style>
    @keyframes blink {
      0%, 90%, 100% { transform: scaleY(1); }
      95% { transform: scaleY(0.1); }
    }
    .eye-blink {
      animation: blink 4s infinite;
      transform-origin: center;
    }

    @keyframes tail-wag {
      0%, 100% { transform: rotate(0deg); }
      50% { transform: rotate(10deg); }
    }
    .tail-wag {
      animation: tail-wag 2s infinite;
      transform-origin: 100px 140px;
    }

    @keyframes whisker-twitch {
      0%, 90%, 100% { transform: translateX(0); }
      95% { transform: translateX(2px); }
    }
    .whiskers-right {
      animation: whisker-twitch 5s infinite;
    }
    .whiskers-left {
      animation: whisker-twitch 5s infinite reverse;
    }
  </style>

  <!-- Cat Face - Natural Tabby Cat Theme -->
  <circle cx="100" cy="100" r="70" fill="#D4A676" />

  <!-- Tabby Stripes Pattern -->
  <path d="M70 60C75 70 85 75 95 70" stroke="#B86E2B" stroke-width="3" />
  <path d="M105 70C115 75 125 70 130 60" stroke="#B86E2B" stroke-width="3" />
  <path d="M60 80C70 90 80 95 95 90" stroke="#B86E2B" stroke-width="3" />
  <path d="M105 90C120 95 130 90 140 80" stroke="#B86E2B" stroke-width="3" />
  <path d="M60 100C70 110 85 115 100 110" stroke="#B86E2B" stroke-width="3" />
  <path d="M100 110C115 115 130 110 140 100" stroke="#B86E2B" stroke-width="3" />

  <!-- White Chest Patch -->
  <path d="M85 120C90 140 110 140 115 120" fill="#F8F0E5" />

  <!-- Cat Ears -->
  <path d="M50 50L70 80L30 80L50 50Z" fill="#B86E2B" />
  <path d="M150 50L170 80L130 80L150 50Z" fill="#B86E2B" />

  <!-- Cat Eyes -->
  <ellipse cx="70" cy="90" rx="10" ry="15" fill="white" />
  <ellipse cx="130" cy="90" rx="10" ry="15" fill="white" />

  <!-- Cat Pupils (with blinking animation) - Amber Eyes -->
  <g class="eye-blink">
    <ellipse cx="70" cy="90" rx="5" ry="10" fill="#704214" />
    <ellipse cx="130" cy="90" rx="5" ry="10" fill="#704214" />
  </g>

  <!-- Cat Nose -->
  <path d="M100 110L95 120H105L100 110Z" fill="#F08080" />

  <!-- Cat Mouth -->
  <path d="M90 125Q100 135 110 125" stroke="#704214" stroke-width="2" fill="none" />

  <!-- Cat Whiskers with animation -->
  <g class="whiskers-left">
    <line x1="40" y1="115" x2="80" y2="115" stroke="white" stroke-width="1" />
    <line x1="40" y1="125" x2="80" y2="125" stroke="white" stroke-width="1" />
    <line x1="40" y1="135" x2="80" y2="135" stroke="white" stroke-width="1" />
  </g>

  <g class="whiskers-right">
    <line x1="120" y1="115" x2="160" y2="115" stroke="white" stroke-width="1" />
    <line x1="120" y1="125" x2="160" y2="125" stroke="white" stroke-width="1" />
    <line x1="120" y1="135" x2="160" y2="135" stroke="white" stroke-width="1" />
  </g>

  <!-- White Paws -->
  <circle cx="75" cy="160" r="8" fill="#F8F0E5" />
  <circle cx="125" cy="160" r="8" fill="#F8F0E5" />

  <!-- Cat Tail with wagging animation -->
  <path d="M70 140C60 160 80 170 100 165" stroke="#B86E2B" stroke-width="8" stroke-linecap="round" class="tail-wag" />

  <!-- Code Symbol -->
  <path d="M85 150L75 160L85 170" stroke="#704214" stroke-width="4" stroke-linecap="round" stroke-linejoin="round" />
  <path d="M115 150L125 160L115 170" stroke="#704214" stroke-width="4" stroke-linecap="round" stroke-linejoin="round" />
</svg>
