<svg width="200" height="200" viewBox="0 0 200 200" fill="none" xmlns="http://www.w3.org/2000/svg">
  <!-- Cat Face -->
  <circle cx="100" cy="100" r="70" fill="#8B5CF6" />
  
  <!-- Cat Ears -->
  <path d="M50 50L70 80L30 80L50 50Z" fill="#6D28D9" />
  <path d="M150 50L170 80L130 80L150 50Z" fill="#6D28D9" />
  
  <!-- Cat Eyes -->
  <ellipse cx="70" cy="90" rx="10" ry="15" fill="white" />
  <ellipse cx="130" cy="90" rx="10" ry="15" fill="white" />
  
  <!-- Cat Pupils -->
  <ellipse cx="70" cy="90" rx="5" ry="10" fill="black" />
  <ellipse cx="130" cy="90" rx="5" ry="10" fill="black" />
  
  <!-- Cat Nose -->
  <path d="M100 110L95 120H105L100 110Z" fill="#F472B6" />
  
  <!-- Cat Mouth -->
  <path d="M90 125Q100 135 110 125" stroke="black" stroke-width="2" fill="none" />
  
  <!-- Cat Whiskers -->
  <line x1="40" y1="115" x2="80" y2="115" stroke="black" stroke-width="1" />
  <line x1="40" y1="125" x2="80" y2="125" stroke="black" stroke-width="1" />
  <line x1="40" y1="135" x2="80" y2="135" stroke="black" stroke-width="1" />
  
  <line x1="120" y1="115" x2="160" y2="115" stroke="black" stroke-width="1" />
  <line x1="120" y1="125" x2="160" y2="125" stroke="black" stroke-width="1" />
  <line x1="120" y1="135" x2="160" y2="135" stroke="black" stroke-width="1" />
  
  <!-- Code Symbol -->
  <path d="M85 150L75 160L85 170" stroke="white" stroke-width="4" stroke-linecap="round" stroke-linejoin="round" />
  <path d="M115 150L125 160L115 170" stroke="white" stroke-width="4" stroke-linecap="round" stroke-linejoin="round" />
</svg>
